<?xml version="1.0" encoding="UTF-8" standalone="no"?>
<svg
   width="740.34186"
   height="715.86096"
   viewBox="0 0 740.34186 715.86094"
   version="1.1"
   xml:space="preserve"
   style="clip-rule:evenodd;fill-rule:evenodd;stroke-linejoin:round;stroke-miterlimit:2"
   id="svg854"
   xmlns="http://www.w3.org/2000/svg"
   xmlns:svg="http://www.w3.org/2000/svg"><defs
   id="defs858" />
    <path
   d="m 40.208767,43.110111 c 18.383,24.735 11.35,71.712999 11.35,71.712999 8.897,-20.462999 6.673,-23.131999 10.899,-48.043999 4.226,-24.911 7.562,-37.367 13.345,-37.812 5.782998,-0.445 10.457998,9.299 10.457998,9.299 l 46.841005,-0.195 0.063,-18.058 c 31.32,-17.5829997 56.577,-22.4119997 62.225,-15.7609997 5.649,6.6509997 -2.632,14.4349997 -2.632,14.4349997 0,0 7.687,0.427 22.776,3.701 15.09,3.274 28.408,2.224 9.725,23.355 -18.684,21.13 -2.669,15.792 -35.811,48.044 -33.141,32.250999 -69.583,63.746999 -69.583,63.746999 1.246,3.559 17.439,12.99 27.759,21.887 10.321,8.897 8.185,12.811 2.135,16.192 -6.05,3.381 -20.926,7.855 -20.926,7.855 35.866,14.457 58.536,59.546 61.383,83.39 2.847,23.844 10.498,14.235 14.235,40.036 3.737,25.802 26.07,28.825 26.07,28.825 -0.285,23.915 5.552,37.723 11.531,47.83 5.978,10.107 -4.271,8.114 -11.389,-2.42 -7.117,-10.534 -10.72,-1.945 -19.034,-15.041 -8.313,-13.097 -31.109,-47.471 -38.938,-61.991 -7.829,-14.52 -6.613,-18.198 -6.043,-24.462 0.569,-6.263 -4.982,-9.11 -15.517,-11.246 -10.534,-2.135 -18.078,-12.811 -18.078,-12.811 2.562,4.84 4.555,16.512 3.559,28.328 -0.997,11.815 2.42,14.377 4.697,18.505 2.278,4.129 -4.186,11.268 -11.693,-9.028 -7.507,-20.296 -10.009,-12.789 -19.184,-33.086 -9.175,-20.296 -15.570005,-31.695 -26.135005,-53.938 -10.564998,-22.242 -19.461998,-23.88 -19.461998,-23.88 -10.009,41.457 0.278,20.853 -6.395,50.88 -6.673,30.027 -1.138,24.917 0.419,48.939 1.557,24.022 1.777,47.48 1.777,47.48 4.17,5.005 4.17,16.96 1.668,35.31 -2.503,18.35 -7.816,32.634 -12.229,32.634 -4.413,0 -4.698,-3.416 -3.701,-8.114 0.996,-4.697 2.545,-8.358 -2.668,-30.601 -5.213,-22.242 1.738,-26.76 1.738,-26.76 l -10.079,-57.344 c -7.993,17.724 -22.241998,38.924 -28.1499978,35.796 -5.909,-3.128 -1.738,-15.987 -1.738,-15.987 -4.86599999,-6.603 -3.476,-15.987 3.475,-27.803 6.9509998,-11.816 15.9869978,-24.675 15.9869978,-24.675 -6.255998,-4.518 -4.169998,-15.292 1.043,-43.095 5.213,-27.803 -6.255998,-0.348 -2.086,-39.272 4.171,-38.924 6.539,-50.415 6.539,-50.415 -16.290998,-48.872999 9.774,-86.341999 9.774,-86.341999 z m 87.185003,18.845 -42.817005,37.813 c 0,0 3.615,30.582999 -13.622998,53.381999 0,0 37.519003,-27.45 37.519003,-38.293 0,0 7.506,3.336 28.359,-13.346 20.852,-16.681999 20.574,-21.685999 20.574,-21.685999 0,0 12.79,5.282 21.13,-12.512 z"
   style="fill:#fdf171;fill-opacity:1"
   id="path842" />
    <path
   d="m 271.13177,21.711111 c 0,0 -32.884,42.136 -32.884,66.194 h 3.986 c 0,0 2.182,41.537999 -7.549,87.412999 l -29.888,16.682 19.114,34.753 c 0,0 1.043,31.627 -5.213,38.577 0,0 4.518,6.256 0.348,25.371 0,0 15.987,16.334 24.675,25.717 8.689,9.384 13.902,19.81 9.384,37.187 -4.518,17.377 1.737,30.584 11.121,39.272 9.383,8.688 5.582,10.959 13.212,16.084 7.63,5.124 12.299,3.644 6.491,-4.897 -5.808,-8.541 -14.235,-57.397 -14.235,-57.397 0,0 18.48,-18.444 14.565,-30.9 -3.914,-12.456 -31.139,-19.395 -33.452,-31.495 0,0 -0.89,-28.827 -1.246,-36.3 -0.356,-7.474 -6.228,-8.363 -6.228,-8.363 0,0 24.62,-4.541 25.51,-26.961 0.89,-22.421 -0.6,-55.204 -0.6,-55.204 l 17.572,-13.791 c 0,0 -0.688,-19.423 -4.859,-33.047 -4.17,-13.622999 -3.406,-24.792999 1.043,-44.532999 4.448,-19.74 -10.867,-44.362 -10.867,-44.362 z"
   style="fill:#fdf171;fill-opacity:1"
   id="path844" />
    <path
   d="m 308.73377,11.276111 c 0,0 75.591,13.164 96.999,19.281 21.408,6.116 20.852,8.619 15.848,14.457 -5.005,5.839 -22.848,21.361 -22.848,21.361 29.36,15.792 90.066,6.283 93.196,15.125 2.302,6.503 -5.561,13.345 -5.561,13.345 0,0 20.685,-3.781 19.351,6.227999 -1.335,10.009 -19.573,13.81 -19.573,13.81 -2.892,31.603 -20.106,47.978 -20.106,47.978 0,0 -6.951,-4.171 -29.75,11.677 -22.798,15.848 -88.504,60.102 -88.504,60.102 -6.228,31.52 11.566,31.139 11.566,31.139 -1.78,25.446 -18.15,30.606 -18.15,30.606 0,0 0.802,34.105 3.649,39.443 2.847,5.339 2.313,17.794 -9.075,35.766 -11.388,17.972 -11.388,16.905 -15.481,39.681 -4.093,22.776 -8.897,30.783 -12.456,32.563 -3.559,1.779 -7.295,0.356 -6.228,-10.854 1.068,-11.211 8.186,-27.047 5.694,-40.571 -2.491,-13.523 -2.135,-17.616 3.559,-27.58 5.694,-9.965 16.727,-30.962 16.727,-30.962 -10.855,-21.353 -14.41,-38.476 -14.41,-38.476 -21.547,-3.823 4.817,-29.206 5.521,-99.845 0.333,-33.453 -16.905,-53.382 -9.253,-78.115 7.651,-24.733999 7.114,-30.533999 0.887,-44.591999 -6.228,-14.057 -16.727,-36.477 -16.727,-36.477 z m 38.891,46.806 c 13.345,29.749 -0.278,55.605999 -0.278,55.605999 v 73.4 c 17.793,-8.619 25.578,-1.39 33.363,-19.74 7.785,-18.35 2.502,-18.628 32.808,-22.799 30.305,-4.17 35.032,-18.072 35.032,-18.072 -46.709,1.669 -53.66,-4.448 -55.328,-10.287 -1.669,-5.838 9.453,-10.287 9.453,-10.287 l -31.974,-11.676999 c 2.502,-26.413 -4.726,-40.593 -4.726,-40.593 z"
   style="fill:#fdf171;fill-opacity:1"
   id="path846" />
    <path
   d="m 380.67177,234.17911 c 36.788,-20.239 80.497,-20.187 80.497,-20.187 37.439,9.54 54.948,18.221 53.809,26.904 -1.139,8.684 -16.988,8.924 -16.988,8.924 0,0 92.23,15.369 96.96,16.463 4.74,1.093 4.24,5.951 4.24,5.951 1.21,35.8 -13.79,41.816 -31.36,43.15 -17.57,1.335 -90.705,4.298 -90.705,4.298 0,0 -55.05,33.919 -69.507,41.148 -14.458,7.229 0.834,12.511 -1.669,28.637 -2.502,16.126 -13.901,27.525 -13.901,27.525 l 17.753,64.536 c -8.452,30.473 -2.447,73.992 -2.447,73.992 -37.367,-37.665 -22.02,-80.073 -22.02,-80.073 -1.779,-17.126 -16.79,-23.727 -16.79,-23.727 v -26.282 c -0.356,0.534 -25.268,61.568 -40.57,80.073 -15.303,18.506 -18.15,37.368 -22.955,37.901 -4.804,0.534 -8.191,-12.088 -2.544,-43.801 5.648,-31.712 13.467,-24.327 28.672,-67.77 15.205,-43.442 30.41,-62.122 30.41,-62.122 -6.951,-16.074 1.738,-33.451 12.598,-66.901 10.861,-33.451 6.517,-68.639 6.517,-68.639 z m 43.524,27.465 c 0,0 -5.352,22.32 -22.662,42.705 0,0 29.988,-15.602 92.585,-17.424 0,0 -5.732,-4.783 -27.597,-8.313 -21.865,-3.53 -30.862,-1.936 -30.975,-5.922 -0.114,-3.986 5.466,-3.188 5.466,-3.188 l 5.238,-6.036 z"
   style="fill:#fdf171;fill-opacity:1"
   id="path848" />
    <path
   d="m 494.50677,341.86711 c 0,0 7.174,-5.124 31.203,-2.961 24.03,2.164 30.75,-2.391 30.75,-2.391 0,0 6.03,32.342 -27.789,53.296 0,0 -3.355,13.205 2.161,25.839 5.516,12.634 9.078,18.862 8.718,30.072 -0.35,11.21 10.86,20.997 5.34,30.072 -5.52,9.075 -22.421,-8.541 -22.421,-8.541 v 42.527 c 0,14.947 -11.21,24.734 -11.21,24.734 v 49.952 c 0,7.58 -2.375,11.443 -6.165,11.225 -3.79,-0.219 -11.808,-3.472 -15.014,-27.769 0,0 -9.594,15.924 -9.416,51.69 0.177,35.765 -6.94,22.783 -22.065,45.196 -15.125,22.413 -2.669,49.104 -2.669,49.104 l -27.225,-8.185 c 0,0 -5.338,-11.21 1.246,-25.089 6.584,-13.88 -0.89,-8.897 16.014,-31.318 16.905,-22.42 1.19,-38.771 0.078,-66.546 -1.112,-27.776 8.216,-9.508 31.126,-99.869 v -77.565 c 0,-10.844 -6.303,-10.21 -6.303,-15.221 0,-5.011 4.295,-11.414 6.628,-15.276 2.332,-3.863 17.119,-28.139 17.119,-28.139 z"
   style="fill:#fdf171;fill-opacity:1"
   id="path850" />
    <path
   d="m 632.04977,282.11111 c 31.43,12.294 81.93,-5.296 85.49,42.943 3.56,48.238 15.39,44.863 15.39,44.863 l -24.02,29.137 c 0.22,18.239 11.78,32.252 10.67,43.373 -1.11,11.121 4.31,19.434 12.28,33.242 7.97,13.808 10.93,20.439 0.43,43.749 -10.5,23.31 -2.67,23.666 -9.43,42.883 -6.76,19.218 -19.5,5.672 -19.5,5.672 v -58.108 c 0,0 -4.72,-4.449 -30.3,-25.579 -25.58,-21.131 -15.85,-53.938 -15.85,-53.938 l -24.74,-31.974 c 0,0 -4.18,14.736 -6.96,32.808 -2.78,18.072 -9.45,7.229 -9.45,22.242 v 43.095 l -23.08,-19.712 c -2.22,89.553 24.62,93.706 24.62,93.706 l -7.78,60.055 c -22.25,-4.004 -21.36,-23.799 -21.36,-23.799 -21.13,30.249 -49.6,57.385 -55.603,62.056 -6.006,4.671 -12.456,7.117 -7.785,-4.893 4.671,-12.011 14.238,-20.241 20.688,-39.814 6.45,-19.574 24.62,-38.038 24.62,-38.038 -11.95,-34.754 -7.02,-110.838 3.82,-151.152 10.85,-40.315 23.15,-16.026 27.82,-46.276 4.67,-30.25 21.58,-72.51 28.47,-88.525 6.9,-16.014 1.56,-18.016 1.56,-18.016 z m 30.94,46.852 -14.92,20.84 c 0,0 13.21,10.591 14.8,26.762 1.6,16.171 16.74,12.185 16.74,38.264 0,26.079 -4.32,47.716 12.64,53.752 0,0 2.77,-11.474 -2.79,-21.928 -5.56,-10.454 -6.45,-23.767 -6.45,-94.975 0,0 -20.02,-7.142 -20.02,-22.715 z"
   style="fill:#fdf171;fill-opacity:1"
   id="path852" />
</svg>
